<svg xmlns="http://www.w3.org/2000/svg" viewBox="0 0 100 100">
  <!-- 背景六边形 -->
  <polygon 
    points="50,5 90,27.5 90,72.5 50,95 10,72.5 10,27.5" 
    fill="#6366f1" 
    stroke="#4f46e5" 
    stroke-width="2"/>
  
  <!-- 内部六边形 -->
  <polygon 
    points="50,15 80,32.5 80,67.5 50,85 20,67.5 20,32.5" 
    fill="#10b981" 
    opacity="0.8"/>
  
  <!-- 中心六边形 -->
  <polygon 
    points="50,25 70,37.5 70,62.5 50,75 30,62.5 30,37.5" 
    fill="#f59e0b" 
    opacity="0.9"/>
  
  <!-- 龙形图案（简化版） -->
  <path 
    d="M35,45 Q40,35 50,40 Q60,35 65,45 Q60,55 50,50 Q40,55 35,45 Z" 
    fill="#ffffff" 
    opacity="0.9"/>
  
  <!-- 眼睛 -->
  <circle cx="42" cy="42" r="2" fill="#1f2937"/>
  <circle cx="58" cy="42" r="2" fill="#1f2937"/>
  
  <!-- 装饰点 -->
  <circle cx="25" cy="30" r="1.5" fill="#ffffff" opacity="0.6"/>
  <circle cx="75" cy="30" r="1.5" fill="#ffffff" opacity="0.6"/>
  <circle cx="25" cy="70" r="1.5" fill="#ffffff" opacity="0.6"/>
  <circle cx="75" cy="70" r="1.5" fill="#ffffff" opacity="0.6"/>
</svg>
